<svg height="32" viewBox="0 0 32 32" width="32" xmlns="http://www.w3.org/2000/svg"><path d="m30 16.67v-2.5664c0-2.1716-2.1715-3.356-3.9482-3.356a5.9018 5.9018 0 0 0 -3.356 1.3818 4.4329 4.4329 0 0 0 -3.1586-1.3818 5.1967 5.1967 0 0 0 -3.356 1.3818 3.34 3.34 0 0 0 -2.9612-1.3818 3.055 3.055 0 0 0 -2.9233 1.5937l-2.6042 5.9079-2.8915-6.6272a1.4616 1.4616 0 0 0 -1.9148-.7574 1.4617 1.4617 0 0 0 -.7518 1.9548l3.584 7.7987s.5923 1.3819 1.7767 1.3819a1.67 1.67 0 0 0 1.7767-.9871c.2735-.41 2.3459-4.769 3.5944-7.41a.4969.4969 0 0 1 .9461.2132v6.551a1.6153 1.6153 0 0 0 1.4741 1.63 1.5794 1.5794 0 0 0 1.6845-1.5759v-5.4293a1.678 1.678 0 1 1 3.356 0v5.4288a1.5793 1.5793 0 1 0 3.1585 0v-5.4288a1.678 1.678 0 0 1 3.356 0v5.4288a1.5793 1.5793 0 0 0 3.1586 0z"/><path d="m0 0h32v32h-32z" fill="none"/></svg>